<mxfile host="app.diagrams.net" modified="2023-11-10T12:32:29.032Z" agent="Mozilla/5.0 (Windows NT 10.0; Win64; x64) AppleWebKit/537.36 (KHTML, like Gecko) Chrome/119.0.0.0 Safari/537.36" etag="ASuFBalgu16ADpyBMXzR" version="22.1.0" type="github">
  <diagram id="C5RBs43oDa-KdzZeNtuy" name="Page-1">
    <mxGraphModel dx="880" dy="1603" grid="1" gridSize="10" guides="1" tooltips="1" connect="1" arrows="1" fold="1" page="1" pageScale="1" pageWidth="827" pageHeight="1169" math="0" shadow="0">
      <root>
        <mxCell id="WIyWlLk6GJQsqaUBKTNV-0" />
        <mxCell id="WIyWlLk6GJQsqaUBKTNV-1" parent="WIyWlLk6GJQsqaUBKTNV-0" />
        <mxCell id="q5LzrCZKhv2fRHbP0HXi-0" value="Program" style="swimlane;fontStyle=1;align=center;verticalAlign=top;childLayout=stackLayout;horizontal=1;startSize=26;horizontalStack=0;resizeParent=1;resizeParentMax=0;resizeLast=0;collapsible=1;marginBottom=0;whiteSpace=wrap;html=1;" parent="WIyWlLk6GJQsqaUBKTNV-1" vertex="1">
          <mxGeometry x="154" y="-1120" width="160" height="130" as="geometry" />
        </mxCell>
        <mxCell id="q5LzrCZKhv2fRHbP0HXi-1" value="- filasMapa : int&lt;br&gt;-columnasMapa: int&lt;br&gt;-mapa: Mapa" style="text;strokeColor=none;fillColor=none;align=left;verticalAlign=top;spacingLeft=4;spacingRight=4;overflow=hidden;rotatable=0;points=[[0,0.5],[1,0.5]];portConstraint=eastwest;whiteSpace=wrap;html=1;" parent="q5LzrCZKhv2fRHbP0HXi-0" vertex="1">
          <mxGeometry y="26" width="160" height="54" as="geometry" />
        </mxCell>
        <mxCell id="q5LzrCZKhv2fRHbP0HXi-2" value="" style="line;strokeWidth=1;fillColor=none;align=left;verticalAlign=middle;spacingTop=-1;spacingLeft=3;spacingRight=3;rotatable=0;labelPosition=right;points=[];portConstraint=eastwest;strokeColor=inherit;" parent="q5LzrCZKhv2fRHbP0HXi-0" vertex="1">
          <mxGeometry y="80" width="160" height="18" as="geometry" />
        </mxCell>
        <mxCell id="q5LzrCZKhv2fRHbP0HXi-3" value="- Menu() void" style="text;strokeColor=none;fillColor=none;align=left;verticalAlign=top;spacingLeft=4;spacingRight=4;overflow=hidden;rotatable=0;points=[[0,0.5],[1,0.5]];portConstraint=eastwest;whiteSpace=wrap;html=1;" parent="q5LzrCZKhv2fRHbP0HXi-0" vertex="1">
          <mxGeometry y="98" width="160" height="32" as="geometry" />
        </mxCell>
        <mxCell id="q5LzrCZKhv2fRHbP0HXi-4" value="Mapa" style="swimlane;fontStyle=1;align=center;verticalAlign=top;childLayout=stackLayout;horizontal=1;startSize=26;horizontalStack=0;resizeParent=1;resizeParentMax=0;resizeLast=0;collapsible=1;marginBottom=0;whiteSpace=wrap;html=1;" parent="WIyWlLk6GJQsqaUBKTNV-1" vertex="1">
          <mxGeometry x="134" y="-950" width="200" height="104" as="geometry" />
        </mxCell>
        <mxCell id="q5LzrCZKhv2fRHbP0HXi-5" value="-mapa: List&amp;lt;List&amp;lt;Localizacion&amp;gt;&amp;gt;&lt;br&gt;-cuartelGeneral: Cuartel(int, int)" style="text;strokeColor=none;fillColor=none;align=left;verticalAlign=top;spacingLeft=4;spacingRight=4;overflow=hidden;rotatable=0;points=[[0,0.5],[1,0.5]];portConstraint=eastwest;whiteSpace=wrap;html=1;" parent="q5LzrCZKhv2fRHbP0HXi-4" vertex="1">
          <mxGeometry y="26" width="200" height="44" as="geometry" />
        </mxCell>
        <mxCell id="q5LzrCZKhv2fRHbP0HXi-6" value="" style="line;strokeWidth=1;fillColor=none;align=left;verticalAlign=middle;spacingTop=-1;spacingLeft=3;spacingRight=3;rotatable=0;labelPosition=right;points=[];portConstraint=eastwest;strokeColor=inherit;" parent="q5LzrCZKhv2fRHbP0HXi-4" vertex="1">
          <mxGeometry y="70" width="200" height="8" as="geometry" />
        </mxCell>
        <mxCell id="q5LzrCZKhv2fRHbP0HXi-7" value="+CompletarMapa(int, int): void" style="text;strokeColor=none;fillColor=none;align=left;verticalAlign=top;spacingLeft=4;spacingRight=4;overflow=hidden;rotatable=0;points=[[0,0.5],[1,0.5]];portConstraint=eastwest;whiteSpace=wrap;html=1;" parent="q5LzrCZKhv2fRHbP0HXi-4" vertex="1">
          <mxGeometry y="78" width="200" height="26" as="geometry" />
        </mxCell>
        <mxCell id="q5LzrCZKhv2fRHbP0HXi-8" value="Cuartel" style="swimlane;fontStyle=1;align=center;verticalAlign=top;childLayout=stackLayout;horizontal=1;startSize=26;horizontalStack=0;resizeParent=1;resizeParentMax=0;resizeLast=0;collapsible=1;marginBottom=0;whiteSpace=wrap;html=1;" parent="WIyWlLk6GJQsqaUBKTNV-1" vertex="1">
          <mxGeometry x="28" y="-610" width="212" height="180" as="geometry" />
        </mxCell>
        <mxCell id="q5LzrCZKhv2fRHbP0HXi-9" value="-listaOperadores: List&amp;lt;Operadores&amp;gt;&lt;br&gt;-filaMapa: int&lt;br&gt;-columnaMapa: int" style="text;strokeColor=none;fillColor=none;align=left;verticalAlign=top;spacingLeft=4;spacingRight=4;overflow=hidden;rotatable=0;points=[[0,0.5],[1,0.5]];portConstraint=eastwest;whiteSpace=wrap;html=1;" parent="q5LzrCZKhv2fRHbP0HXi-8" vertex="1">
          <mxGeometry y="26" width="212" height="54" as="geometry" />
        </mxCell>
        <mxCell id="q5LzrCZKhv2fRHbP0HXi-10" value="" style="line;strokeWidth=1;fillColor=none;align=left;verticalAlign=middle;spacingTop=-1;spacingLeft=3;spacingRight=3;rotatable=0;labelPosition=right;points=[];portConstraint=eastwest;strokeColor=inherit;" parent="q5LzrCZKhv2fRHbP0HXi-8" vertex="1">
          <mxGeometry y="80" width="212" height="8" as="geometry" />
        </mxCell>
        <mxCell id="q5LzrCZKhv2fRHbP0HXi-11" value="+ListarTodosLosOperadores()&lt;br&gt;+ListarOperadoresEnUnaLocalizacion(Localizacion)&lt;br&gt;+VolverTodosAlCuertel()&lt;br&gt;+EnviarOperador(Operador, Localizacion)" style="text;strokeColor=none;fillColor=none;align=left;verticalAlign=top;spacingLeft=4;spacingRight=4;overflow=hidden;rotatable=0;points=[[0,0.5],[1,0.5]];portConstraint=eastwest;whiteSpace=wrap;html=1;" parent="q5LzrCZKhv2fRHbP0HXi-8" vertex="1">
          <mxGeometry y="88" width="212" height="92" as="geometry" />
        </mxCell>
        <mxCell id="q5LzrCZKhv2fRHbP0HXi-12" value="Abstract Localizacion" style="swimlane;fontStyle=1;align=center;verticalAlign=top;childLayout=stackLayout;horizontal=1;startSize=26;horizontalStack=0;resizeParent=1;resizeParentMax=0;resizeLast=0;collapsible=1;marginBottom=0;whiteSpace=wrap;html=1;" parent="WIyWlLk6GJQsqaUBKTNV-1" vertex="1">
          <mxGeometry x="154" y="-800" width="170" height="78" as="geometry" />
        </mxCell>
        <mxCell id="q5LzrCZKhv2fRHbP0HXi-13" value="-nombre: string&lt;br&gt;-descripcion: string" style="text;strokeColor=none;fillColor=none;align=left;verticalAlign=top;spacingLeft=4;spacingRight=4;overflow=hidden;rotatable=0;points=[[0,0.5],[1,0.5]];portConstraint=eastwest;whiteSpace=wrap;html=1;" parent="q5LzrCZKhv2fRHbP0HXi-12" vertex="1">
          <mxGeometry y="26" width="170" height="44" as="geometry" />
        </mxCell>
        <mxCell id="q5LzrCZKhv2fRHbP0HXi-14" value="" style="line;strokeWidth=1;fillColor=none;align=left;verticalAlign=middle;spacingTop=-1;spacingLeft=3;spacingRight=3;rotatable=0;labelPosition=right;points=[];portConstraint=eastwest;strokeColor=inherit;" parent="q5LzrCZKhv2fRHbP0HXi-12" vertex="1">
          <mxGeometry y="70" width="170" height="8" as="geometry" />
        </mxCell>
        <mxCell id="q5LzrCZKhv2fRHbP0HXi-20" style="edgeStyle=orthogonalEdgeStyle;rounded=0;orthogonalLoop=1;jettySize=auto;html=1;exitX=0.5;exitY=0;exitDx=0;exitDy=0;entryX=0.503;entryY=1.073;entryDx=0;entryDy=0;entryPerimeter=0;startArrow=classic;startFill=1;endArrow=none;endFill=0;" parent="WIyWlLk6GJQsqaUBKTNV-1" source="q5LzrCZKhv2fRHbP0HXi-4" target="q5LzrCZKhv2fRHbP0HXi-3" edge="1">
          <mxGeometry relative="1" as="geometry" />
        </mxCell>
        <mxCell id="q5LzrCZKhv2fRHbP0HXi-24" value="Abstract Operador" style="swimlane;fontStyle=1;align=center;verticalAlign=top;childLayout=stackLayout;horizontal=1;startSize=26;horizontalStack=0;resizeParent=1;resizeParentMax=0;resizeLast=0;collapsible=1;marginBottom=0;whiteSpace=wrap;html=1;" parent="WIyWlLk6GJQsqaUBKTNV-1" vertex="1">
          <mxGeometry x="190" y="-304" width="400" height="320" as="geometry" />
        </mxCell>
        <mxCell id="Av3Y4sU9qoWVEQnkigAC-6" style="edgeStyle=orthogonalEdgeStyle;rounded=0;orthogonalLoop=1;jettySize=auto;html=1;exitX=0;exitY=0.5;exitDx=0;exitDy=0;" edge="1" parent="q5LzrCZKhv2fRHbP0HXi-24" source="q5LzrCZKhv2fRHbP0HXi-25">
          <mxGeometry relative="1" as="geometry">
            <mxPoint x="-20" y="93" as="targetPoint" />
          </mxGeometry>
        </mxCell>
        <mxCell id="q5LzrCZKhv2fRHbP0HXi-25" value="-id: string&lt;br&gt;-bateria: Bateria&lt;br&gt;-estado: EstadoOperador&lt;br&gt;-cargaMaxima: double&lt;br&gt;-cargaActual: double&lt;br&gt;-velocidadOptima: double&lt;br&gt;-localizacionActual: Localizaciones" style="text;strokeColor=none;fillColor=none;align=left;verticalAlign=top;spacingLeft=4;spacingRight=4;overflow=hidden;rotatable=0;points=[[0,0.5],[1,0.5]];portConstraint=eastwest;whiteSpace=wrap;html=1;" parent="q5LzrCZKhv2fRHbP0HXi-24" vertex="1">
          <mxGeometry y="26" width="400" height="134" as="geometry" />
        </mxCell>
        <mxCell id="q5LzrCZKhv2fRHbP0HXi-26" value="" style="line;strokeWidth=1;fillColor=none;align=left;verticalAlign=middle;spacingTop=-1;spacingLeft=3;spacingRight=3;rotatable=0;labelPosition=right;points=[];portConstraint=eastwest;strokeColor=inherit;" parent="q5LzrCZKhv2fRHbP0HXi-24" vertex="1">
          <mxGeometry y="160" width="400" height="8" as="geometry" />
        </mxCell>
        <mxCell id="q5LzrCZKhv2fRHbP0HXi-27" value="&lt;div&gt;+Operador(Bateria bateria, EstadoOperador estado, double cargaMaxima, double velocidadOptima, string localizacionActual)&lt;/div&gt;&lt;div&gt;-RandomId():string&lt;/div&gt;&lt;div&gt;+Moverse(Localizacion):void&lt;/div&gt;&lt;div&gt;+TranferirCargaFisica(Operador,int):void&lt;/div&gt;&lt;div&gt;+VolverAlCuartelTranferirCarga():void&lt;/div&gt;&lt;div&gt;+ImprimirReporteGeneral():void&lt;/div&gt;&lt;div&gt;+VolverCuartelCargarBateria():void abstract&lt;/div&gt;&lt;div&gt;+ComprobarBateriaParaAvanzarOVolverAlCuertel(Localizacion):bool&lt;/div&gt;&lt;div&gt;&lt;br&gt;&lt;/div&gt;" style="text;strokeColor=none;fillColor=none;align=left;verticalAlign=top;spacingLeft=4;spacingRight=4;overflow=hidden;rotatable=0;points=[[0,0.5],[1,0.5]];portConstraint=eastwest;whiteSpace=wrap;html=1;" parent="q5LzrCZKhv2fRHbP0HXi-24" vertex="1">
          <mxGeometry y="168" width="400" height="152" as="geometry" />
        </mxCell>
        <mxCell id="q5LzrCZKhv2fRHbP0HXi-34" value="enum EstadoOperador" style="swimlane;fontStyle=0;childLayout=stackLayout;horizontal=1;startSize=26;fillColor=none;horizontalStack=0;resizeParent=1;resizeParentMax=0;resizeLast=0;collapsible=1;marginBottom=0;whiteSpace=wrap;html=1;" parent="WIyWlLk6GJQsqaUBKTNV-1" vertex="1">
          <mxGeometry x="670" y="-304" width="140" height="180" as="geometry" />
        </mxCell>
        <mxCell id="q5LzrCZKhv2fRHbP0HXi-35" value="&lt;div&gt;GuardadoEnCuartel,&lt;/div&gt;&lt;div&gt;EnMovimiento,&lt;/div&gt;&lt;div&gt;Encendido,&lt;/div&gt;&lt;div&gt;Dañado,&lt;/div&gt;&lt;div&gt;CargandoBateria,&lt;/div&gt;&lt;div&gt;TranfiriendoCarga,&lt;/div&gt;&lt;div&gt;CargandoBatería,&lt;/div&gt;&lt;div&gt;EnTallerReparacion,&lt;/div&gt;&lt;div&gt;EsperandoOrdenes,&lt;/div&gt;&lt;div&gt;Standby&lt;/div&gt;" style="text;strokeColor=none;fillColor=none;align=left;verticalAlign=top;spacingLeft=4;spacingRight=4;overflow=hidden;rotatable=0;points=[[0,0.5],[1,0.5]];portConstraint=eastwest;whiteSpace=wrap;html=1;" parent="q5LzrCZKhv2fRHbP0HXi-34" vertex="1">
          <mxGeometry y="26" width="140" height="154" as="geometry" />
        </mxCell>
        <mxCell id="q5LzrCZKhv2fRHbP0HXi-52" style="edgeStyle=orthogonalEdgeStyle;rounded=0;orthogonalLoop=1;jettySize=auto;html=1;exitX=0.5;exitY=0;exitDx=0;exitDy=0;endArrow=block;endFill=0;strokeWidth=1;" parent="WIyWlLk6GJQsqaUBKTNV-1" source="q5LzrCZKhv2fRHbP0HXi-36" edge="1">
          <mxGeometry relative="1" as="geometry">
            <mxPoint x="270" y="20" as="targetPoint" />
          </mxGeometry>
        </mxCell>
        <mxCell id="q5LzrCZKhv2fRHbP0HXi-36" value="UAV" style="swimlane;fontStyle=1;align=center;verticalAlign=top;childLayout=stackLayout;horizontal=1;startSize=26;horizontalStack=0;resizeParent=1;resizeParentMax=0;resizeLast=0;collapsible=1;marginBottom=0;whiteSpace=wrap;html=1;" parent="WIyWlLk6GJQsqaUBKTNV-1" vertex="1">
          <mxGeometry x="50" y="80" width="180" height="60" as="geometry" />
        </mxCell>
        <mxCell id="q5LzrCZKhv2fRHbP0HXi-38" value="" style="line;strokeWidth=1;fillColor=none;align=left;verticalAlign=middle;spacingTop=-1;spacingLeft=3;spacingRight=3;rotatable=0;labelPosition=right;points=[];portConstraint=eastwest;strokeColor=inherit;" parent="q5LzrCZKhv2fRHbP0HXi-36" vertex="1">
          <mxGeometry y="26" width="180" height="8" as="geometry" />
        </mxCell>
        <mxCell id="q5LzrCZKhv2fRHbP0HXi-39" value="+VolverCuartelCargarBateria()" style="text;strokeColor=none;fillColor=none;align=left;verticalAlign=top;spacingLeft=4;spacingRight=4;overflow=hidden;rotatable=0;points=[[0,0.5],[1,0.5]];portConstraint=eastwest;whiteSpace=wrap;html=1;" parent="q5LzrCZKhv2fRHbP0HXi-36" vertex="1">
          <mxGeometry y="34" width="180" height="26" as="geometry" />
        </mxCell>
        <mxCell id="q5LzrCZKhv2fRHbP0HXi-53" style="edgeStyle=orthogonalEdgeStyle;rounded=0;orthogonalLoop=1;jettySize=auto;html=1;exitX=0.5;exitY=0;exitDx=0;exitDy=0;endArrow=block;endFill=0;" parent="WIyWlLk6GJQsqaUBKTNV-1" source="q5LzrCZKhv2fRHbP0HXi-40" edge="1">
          <mxGeometry relative="1" as="geometry">
            <mxPoint x="367" y="20" as="targetPoint" />
          </mxGeometry>
        </mxCell>
        <mxCell id="q5LzrCZKhv2fRHbP0HXi-40" value="K9" style="swimlane;fontStyle=1;align=center;verticalAlign=top;childLayout=stackLayout;horizontal=1;startSize=26;horizontalStack=0;resizeParent=1;resizeParentMax=0;resizeLast=0;collapsible=1;marginBottom=0;whiteSpace=wrap;html=1;" parent="WIyWlLk6GJQsqaUBKTNV-1" vertex="1">
          <mxGeometry x="274" y="80" width="186" height="60" as="geometry" />
        </mxCell>
        <mxCell id="q5LzrCZKhv2fRHbP0HXi-42" value="" style="line;strokeWidth=1;fillColor=none;align=left;verticalAlign=middle;spacingTop=-1;spacingLeft=3;spacingRight=3;rotatable=0;labelPosition=right;points=[];portConstraint=eastwest;strokeColor=inherit;" parent="q5LzrCZKhv2fRHbP0HXi-40" vertex="1">
          <mxGeometry y="26" width="186" height="8" as="geometry" />
        </mxCell>
        <mxCell id="q5LzrCZKhv2fRHbP0HXi-43" value="+VolverCuartelCargarBateria()" style="text;strokeColor=none;fillColor=none;align=left;verticalAlign=top;spacingLeft=4;spacingRight=4;overflow=hidden;rotatable=0;points=[[0,0.5],[1,0.5]];portConstraint=eastwest;whiteSpace=wrap;html=1;" parent="q5LzrCZKhv2fRHbP0HXi-40" vertex="1">
          <mxGeometry y="34" width="186" height="26" as="geometry" />
        </mxCell>
        <mxCell id="q5LzrCZKhv2fRHbP0HXi-54" style="edgeStyle=orthogonalEdgeStyle;rounded=0;orthogonalLoop=1;jettySize=auto;html=1;exitX=0.5;exitY=0;exitDx=0;exitDy=0;endArrow=block;endFill=0;entryX=0.78;entryY=1;entryDx=0;entryDy=0;entryPerimeter=0;" parent="WIyWlLk6GJQsqaUBKTNV-1" source="q5LzrCZKhv2fRHbP0HXi-44" edge="1" target="q5LzrCZKhv2fRHbP0HXi-27">
          <mxGeometry relative="1" as="geometry">
            <mxPoint x="400" y="20" as="targetPoint" />
          </mxGeometry>
        </mxCell>
        <mxCell id="q5LzrCZKhv2fRHbP0HXi-44" value="M8" style="swimlane;fontStyle=1;align=center;verticalAlign=top;childLayout=stackLayout;horizontal=1;startSize=26;horizontalStack=0;resizeParent=1;resizeParentMax=0;resizeLast=0;collapsible=1;marginBottom=0;whiteSpace=wrap;html=1;" parent="WIyWlLk6GJQsqaUBKTNV-1" vertex="1">
          <mxGeometry x="510" y="80" width="200" height="60" as="geometry" />
        </mxCell>
        <mxCell id="q5LzrCZKhv2fRHbP0HXi-46" value="" style="line;strokeWidth=1;fillColor=none;align=left;verticalAlign=middle;spacingTop=-1;spacingLeft=3;spacingRight=3;rotatable=0;labelPosition=right;points=[];portConstraint=eastwest;strokeColor=inherit;" parent="q5LzrCZKhv2fRHbP0HXi-44" vertex="1">
          <mxGeometry y="26" width="200" height="8" as="geometry" />
        </mxCell>
        <mxCell id="q5LzrCZKhv2fRHbP0HXi-47" value="+VolverCuartelCargarBateria()" style="text;strokeColor=none;fillColor=none;align=left;verticalAlign=top;spacingLeft=4;spacingRight=4;overflow=hidden;rotatable=0;points=[[0,0.5],[1,0.5]];portConstraint=eastwest;whiteSpace=wrap;html=1;" parent="q5LzrCZKhv2fRHbP0HXi-44" vertex="1">
          <mxGeometry y="34" width="200" height="26" as="geometry" />
        </mxCell>
        <mxCell id="q5LzrCZKhv2fRHbP0HXi-50" style="edgeStyle=orthogonalEdgeStyle;rounded=0;orthogonalLoop=1;jettySize=auto;html=1;entryX=0.574;entryY=1.021;entryDx=0;entryDy=0;entryPerimeter=0;startArrow=classic;startFill=1;endArrow=none;endFill=0;" parent="WIyWlLk6GJQsqaUBKTNV-1" source="q5LzrCZKhv2fRHbP0HXi-24" target="q5LzrCZKhv2fRHbP0HXi-11" edge="1">
          <mxGeometry relative="1" as="geometry">
            <Array as="points">
              <mxPoint x="430" y="-390" />
              <mxPoint x="150" y="-390" />
            </Array>
            <mxPoint x="430" y="-370" as="sourcePoint" />
          </mxGeometry>
        </mxCell>
        <mxCell id="q5LzrCZKhv2fRHbP0HXi-55" style="edgeStyle=orthogonalEdgeStyle;rounded=0;orthogonalLoop=1;jettySize=auto;html=1;exitX=0.5;exitY=0;exitDx=0;exitDy=0;entryX=0.526;entryY=1.007;entryDx=0;entryDy=0;entryPerimeter=0;startArrow=classic;startFill=1;endArrow=none;endFill=0;" parent="WIyWlLk6GJQsqaUBKTNV-1" source="q5LzrCZKhv2fRHbP0HXi-12" target="q5LzrCZKhv2fRHbP0HXi-7" edge="1">
          <mxGeometry relative="1" as="geometry" />
        </mxCell>
        <mxCell id="q5LzrCZKhv2fRHbP0HXi-57" style="edgeStyle=orthogonalEdgeStyle;rounded=0;orthogonalLoop=1;jettySize=auto;html=1;exitX=0.5;exitY=0;exitDx=0;exitDy=0;entryX=0.439;entryY=1;entryDx=0;entryDy=0;entryPerimeter=0;endArrow=block;endFill=0;" parent="WIyWlLk6GJQsqaUBKTNV-1" source="q5LzrCZKhv2fRHbP0HXi-8" target="q5LzrCZKhv2fRHbP0HXi-14" edge="1">
          <mxGeometry relative="1" as="geometry" />
        </mxCell>
        <mxCell id="q5LzrCZKhv2fRHbP0HXi-62" style="edgeStyle=orthogonalEdgeStyle;rounded=0;orthogonalLoop=1;jettySize=auto;html=1;exitX=0;exitY=0.5;exitDx=0;exitDy=0;entryX=1;entryY=0.25;entryDx=0;entryDy=0;endArrow=block;endFill=0;" parent="WIyWlLk6GJQsqaUBKTNV-1" source="q5LzrCZKhv2fRHbP0HXi-58" target="q5LzrCZKhv2fRHbP0HXi-12" edge="1">
          <mxGeometry relative="1" as="geometry" />
        </mxCell>
        <mxCell id="q5LzrCZKhv2fRHbP0HXi-58" value="TerrenoBaldio" style="swimlane;fontStyle=1;align=center;verticalAlign=top;childLayout=stackLayout;horizontal=1;startSize=26;horizontalStack=0;resizeParent=1;resizeParentMax=0;resizeLast=0;collapsible=1;marginBottom=0;whiteSpace=wrap;html=1;" parent="WIyWlLk6GJQsqaUBKTNV-1" vertex="1">
          <mxGeometry x="414" y="-800" width="160" height="34" as="geometry" />
        </mxCell>
        <mxCell id="q5LzrCZKhv2fRHbP0HXi-60" value="" style="line;strokeWidth=1;fillColor=none;align=left;verticalAlign=middle;spacingTop=-1;spacingLeft=3;spacingRight=3;rotatable=0;labelPosition=right;points=[];portConstraint=eastwest;strokeColor=inherit;" parent="q5LzrCZKhv2fRHbP0HXi-58" vertex="1">
          <mxGeometry y="26" width="160" height="8" as="geometry" />
        </mxCell>
        <mxCell id="q5LzrCZKhv2fRHbP0HXi-63" value="Planicie" style="swimlane;fontStyle=1;align=center;verticalAlign=top;childLayout=stackLayout;horizontal=1;startSize=26;horizontalStack=0;resizeParent=1;resizeParentMax=0;resizeLast=0;collapsible=1;marginBottom=0;whiteSpace=wrap;html=1;" parent="WIyWlLk6GJQsqaUBKTNV-1" vertex="1">
          <mxGeometry x="414" y="-760" width="160" height="34" as="geometry" />
        </mxCell>
        <mxCell id="q5LzrCZKhv2fRHbP0HXi-65" value="" style="line;strokeWidth=1;fillColor=none;align=left;verticalAlign=middle;spacingTop=-1;spacingLeft=3;spacingRight=3;rotatable=0;labelPosition=right;points=[];portConstraint=eastwest;strokeColor=inherit;" parent="q5LzrCZKhv2fRHbP0HXi-63" vertex="1">
          <mxGeometry y="26" width="160" height="8" as="geometry" />
        </mxCell>
        <mxCell id="q5LzrCZKhv2fRHbP0HXi-67" style="edgeStyle=orthogonalEdgeStyle;rounded=0;orthogonalLoop=1;jettySize=auto;html=1;exitX=0;exitY=0.5;exitDx=0;exitDy=0;entryX=0.994;entryY=0.035;entryDx=0;entryDy=0;entryPerimeter=0;endArrow=block;endFill=0;" parent="WIyWlLk6GJQsqaUBKTNV-1" source="q5LzrCZKhv2fRHbP0HXi-63" target="q5LzrCZKhv2fRHbP0HXi-13" edge="1">
          <mxGeometry relative="1" as="geometry" />
        </mxCell>
        <mxCell id="q5LzrCZKhv2fRHbP0HXi-68" value="Bosque" style="swimlane;fontStyle=1;align=center;verticalAlign=top;childLayout=stackLayout;horizontal=1;startSize=26;horizontalStack=0;resizeParent=1;resizeParentMax=0;resizeLast=0;collapsible=1;marginBottom=0;whiteSpace=wrap;html=1;" parent="WIyWlLk6GJQsqaUBKTNV-1" vertex="1">
          <mxGeometry x="414" y="-722" width="160" height="34" as="geometry" />
        </mxCell>
        <mxCell id="q5LzrCZKhv2fRHbP0HXi-70" value="" style="line;strokeWidth=1;fillColor=none;align=left;verticalAlign=middle;spacingTop=-1;spacingLeft=3;spacingRight=3;rotatable=0;labelPosition=right;points=[];portConstraint=eastwest;strokeColor=inherit;" parent="q5LzrCZKhv2fRHbP0HXi-68" vertex="1">
          <mxGeometry y="26" width="160" height="8" as="geometry" />
        </mxCell>
        <mxCell id="q5LzrCZKhv2fRHbP0HXi-72" style="edgeStyle=orthogonalEdgeStyle;rounded=0;orthogonalLoop=1;jettySize=auto;html=1;exitX=0;exitY=0.5;exitDx=0;exitDy=0;entryX=1.016;entryY=0.229;entryDx=0;entryDy=0;entryPerimeter=0;endArrow=block;endFill=0;" parent="WIyWlLk6GJQsqaUBKTNV-1" source="q5LzrCZKhv2fRHbP0HXi-68" target="q5LzrCZKhv2fRHbP0HXi-13" edge="1">
          <mxGeometry relative="1" as="geometry" />
        </mxCell>
        <mxCell id="q5LzrCZKhv2fRHbP0HXi-77" style="edgeStyle=orthogonalEdgeStyle;rounded=0;orthogonalLoop=1;jettySize=auto;html=1;exitX=0;exitY=0.5;exitDx=0;exitDy=0;entryX=1;entryY=0.5;entryDx=0;entryDy=0;endArrow=block;endFill=0;" parent="WIyWlLk6GJQsqaUBKTNV-1" source="q5LzrCZKhv2fRHbP0HXi-73" target="q5LzrCZKhv2fRHbP0HXi-13" edge="1">
          <mxGeometry relative="1" as="geometry" />
        </mxCell>
        <mxCell id="q5LzrCZKhv2fRHbP0HXi-73" value="SectorUrbano" style="swimlane;fontStyle=1;align=center;verticalAlign=top;childLayout=stackLayout;horizontal=1;startSize=26;horizontalStack=0;resizeParent=1;resizeParentMax=0;resizeLast=0;collapsible=1;marginBottom=0;whiteSpace=wrap;html=1;" parent="WIyWlLk6GJQsqaUBKTNV-1" vertex="1">
          <mxGeometry x="414" y="-680" width="160" height="34" as="geometry" />
        </mxCell>
        <mxCell id="q5LzrCZKhv2fRHbP0HXi-75" value="" style="line;strokeWidth=1;fillColor=none;align=left;verticalAlign=middle;spacingTop=-1;spacingLeft=3;spacingRight=3;rotatable=0;labelPosition=right;points=[];portConstraint=eastwest;strokeColor=inherit;" parent="q5LzrCZKhv2fRHbP0HXi-73" vertex="1">
          <mxGeometry y="26" width="160" height="8" as="geometry" />
        </mxCell>
        <mxCell id="q5LzrCZKhv2fRHbP0HXi-78" value="Vertedero" style="swimlane;fontStyle=1;align=center;verticalAlign=top;childLayout=stackLayout;horizontal=1;startSize=26;horizontalStack=0;resizeParent=1;resizeParentMax=0;resizeLast=0;collapsible=1;marginBottom=0;whiteSpace=wrap;html=1;" parent="WIyWlLk6GJQsqaUBKTNV-1" vertex="1">
          <mxGeometry x="414" y="-640" width="160" height="34" as="geometry" />
        </mxCell>
        <mxCell id="q5LzrCZKhv2fRHbP0HXi-80" value="" style="line;strokeWidth=1;fillColor=none;align=left;verticalAlign=middle;spacingTop=-1;spacingLeft=3;spacingRight=3;rotatable=0;labelPosition=right;points=[];portConstraint=eastwest;strokeColor=inherit;" parent="q5LzrCZKhv2fRHbP0HXi-78" vertex="1">
          <mxGeometry y="26" width="160" height="8" as="geometry" />
        </mxCell>
        <mxCell id="q5LzrCZKhv2fRHbP0HXi-91" style="edgeStyle=orthogonalEdgeStyle;rounded=0;orthogonalLoop=1;jettySize=auto;html=1;exitX=0;exitY=0.5;exitDx=0;exitDy=0;endArrow=block;endFill=0;" parent="WIyWlLk6GJQsqaUBKTNV-1" source="q5LzrCZKhv2fRHbP0HXi-84" edge="1">
          <mxGeometry relative="1" as="geometry">
            <mxPoint x="310" y="-720" as="targetPoint" />
          </mxGeometry>
        </mxCell>
        <mxCell id="q5LzrCZKhv2fRHbP0HXi-84" value="Lago" style="swimlane;fontStyle=1;align=center;verticalAlign=top;childLayout=stackLayout;horizontal=1;startSize=26;horizontalStack=0;resizeParent=1;resizeParentMax=0;resizeLast=0;collapsible=1;marginBottom=0;whiteSpace=wrap;html=1;" parent="WIyWlLk6GJQsqaUBKTNV-1" vertex="1">
          <mxGeometry x="414" y="-600" width="160" height="34" as="geometry" />
        </mxCell>
        <mxCell id="q5LzrCZKhv2fRHbP0HXi-85" value="" style="line;strokeWidth=1;fillColor=none;align=left;verticalAlign=middle;spacingTop=-1;spacingLeft=3;spacingRight=3;rotatable=0;labelPosition=right;points=[];portConstraint=eastwest;strokeColor=inherit;" parent="q5LzrCZKhv2fRHbP0HXi-84" vertex="1">
          <mxGeometry y="26" width="160" height="8" as="geometry" />
        </mxCell>
        <mxCell id="q5LzrCZKhv2fRHbP0HXi-92" style="edgeStyle=orthogonalEdgeStyle;rounded=0;orthogonalLoop=1;jettySize=auto;html=1;exitX=0;exitY=0.5;exitDx=0;exitDy=0;endArrow=block;endFill=0;" parent="WIyWlLk6GJQsqaUBKTNV-1" source="q5LzrCZKhv2fRHbP0HXi-86" edge="1">
          <mxGeometry relative="1" as="geometry">
            <mxPoint x="300" y="-720" as="targetPoint" />
          </mxGeometry>
        </mxCell>
        <mxCell id="q5LzrCZKhv2fRHbP0HXi-86" value="VertederoElectronico" style="swimlane;fontStyle=1;align=center;verticalAlign=top;childLayout=stackLayout;horizontal=1;startSize=26;horizontalStack=0;resizeParent=1;resizeParentMax=0;resizeLast=0;collapsible=1;marginBottom=0;whiteSpace=wrap;html=1;" parent="WIyWlLk6GJQsqaUBKTNV-1" vertex="1">
          <mxGeometry x="414" y="-550" width="160" height="34" as="geometry" />
        </mxCell>
        <mxCell id="q5LzrCZKhv2fRHbP0HXi-87" value="" style="line;strokeWidth=1;fillColor=none;align=left;verticalAlign=middle;spacingTop=-1;spacingLeft=3;spacingRight=3;rotatable=0;labelPosition=right;points=[];portConstraint=eastwest;strokeColor=inherit;" parent="q5LzrCZKhv2fRHbP0HXi-86" vertex="1">
          <mxGeometry y="26" width="160" height="8" as="geometry" />
        </mxCell>
        <mxCell id="q5LzrCZKhv2fRHbP0HXi-93" style="edgeStyle=orthogonalEdgeStyle;rounded=0;orthogonalLoop=1;jettySize=auto;html=1;exitX=0;exitY=0.5;exitDx=0;exitDy=0;endArrow=block;endFill=0;" parent="WIyWlLk6GJQsqaUBKTNV-1" source="q5LzrCZKhv2fRHbP0HXi-88" edge="1">
          <mxGeometry relative="1" as="geometry">
            <mxPoint x="260" y="-720" as="targetPoint" />
          </mxGeometry>
        </mxCell>
        <mxCell id="q5LzrCZKhv2fRHbP0HXi-88" value="SitioDeReciclaje" style="swimlane;fontStyle=1;align=center;verticalAlign=top;childLayout=stackLayout;horizontal=1;startSize=26;horizontalStack=0;resizeParent=1;resizeParentMax=0;resizeLast=0;collapsible=1;marginBottom=0;whiteSpace=wrap;html=1;" parent="WIyWlLk6GJQsqaUBKTNV-1" vertex="1">
          <mxGeometry x="414" y="-510" width="160" height="34" as="geometry" />
        </mxCell>
        <mxCell id="q5LzrCZKhv2fRHbP0HXi-89" value="" style="line;strokeWidth=1;fillColor=none;align=left;verticalAlign=middle;spacingTop=-1;spacingLeft=3;spacingRight=3;rotatable=0;labelPosition=right;points=[];portConstraint=eastwest;strokeColor=inherit;" parent="q5LzrCZKhv2fRHbP0HXi-88" vertex="1">
          <mxGeometry y="26" width="160" height="8" as="geometry" />
        </mxCell>
        <mxCell id="q5LzrCZKhv2fRHbP0HXi-90" style="edgeStyle=orthogonalEdgeStyle;rounded=0;orthogonalLoop=1;jettySize=auto;html=1;exitX=0;exitY=0.5;exitDx=0;exitDy=0;entryX=1.027;entryY=0.814;entryDx=0;entryDy=0;entryPerimeter=0;endArrow=block;endFill=0;" parent="WIyWlLk6GJQsqaUBKTNV-1" source="q5LzrCZKhv2fRHbP0HXi-78" target="q5LzrCZKhv2fRHbP0HXi-13" edge="1">
          <mxGeometry relative="1" as="geometry" />
        </mxCell>
        <mxCell id="q5LzrCZKhv2fRHbP0HXi-51" style="edgeStyle=orthogonalEdgeStyle;rounded=0;orthogonalLoop=1;jettySize=auto;html=1;exitX=1;exitY=0.5;exitDx=0;exitDy=0;entryX=-0.014;entryY=0.435;entryDx=0;entryDy=0;entryPerimeter=0;" parent="WIyWlLk6GJQsqaUBKTNV-1" source="q5LzrCZKhv2fRHbP0HXi-25" edge="1" target="q5LzrCZKhv2fRHbP0HXi-35">
          <mxGeometry relative="1" as="geometry">
            <mxPoint x="760" y="-211" as="targetPoint" />
          </mxGeometry>
        </mxCell>
        <mxCell id="Av3Y4sU9qoWVEQnkigAC-0" value="Bateria" style="swimlane;fontStyle=1;align=center;verticalAlign=top;childLayout=stackLayout;horizontal=1;startSize=26;horizontalStack=0;resizeParent=1;resizeParentMax=0;resizeLast=0;collapsible=1;marginBottom=0;whiteSpace=wrap;html=1;" vertex="1" parent="WIyWlLk6GJQsqaUBKTNV-1">
          <mxGeometry y="-260" width="160" height="78" as="geometry" />
        </mxCell>
        <mxCell id="Av3Y4sU9qoWVEQnkigAC-1" value="- mAh: int&lt;br&gt;- cargaActual: int" style="text;strokeColor=none;fillColor=none;align=left;verticalAlign=top;spacingLeft=4;spacingRight=4;overflow=hidden;rotatable=0;points=[[0,0.5],[1,0.5]];portConstraint=eastwest;whiteSpace=wrap;html=1;" vertex="1" parent="Av3Y4sU9qoWVEQnkigAC-0">
          <mxGeometry y="26" width="160" height="44" as="geometry" />
        </mxCell>
        <mxCell id="Av3Y4sU9qoWVEQnkigAC-2" value="" style="line;strokeWidth=1;fillColor=none;align=left;verticalAlign=middle;spacingTop=-1;spacingLeft=3;spacingRight=3;rotatable=0;labelPosition=right;points=[];portConstraint=eastwest;strokeColor=inherit;" vertex="1" parent="Av3Y4sU9qoWVEQnkigAC-0">
          <mxGeometry y="70" width="160" height="8" as="geometry" />
        </mxCell>
      </root>
    </mxGraphModel>
  </diagram>
</mxfile>
